<svg xmlns="http://www.w3.org/2000/svg" width="260" height="191" viewBox="0 0 260 191">
  <g id="Group_43" data-name="Group 43" transform="translate(-139 -4876)">
    <text id="Zetta_Hotels" data-name="Zetta Hotels" transform="translate(139 4901)" fill="#fff" font-size="24" font-family="Poppins-Bold, Poppins" font-weight="700"><tspan x="0" y="0">Zetta Hotels</tspan></text>
    <text id="Our_hotel_is_an_image_of_quality_and_profesionalism_combined_with_hard_work_and_precision._You_can_expect_only_the_best_services_from_our_staff." data-name="Our hotel is an image of quality and profesionalism combined with hard work and precision. You can expect only the best services from our staff." transform="translate(139 4929)" fill="#b1b1b1" font-size="14" font-family="Poppins-Medium, Poppins" font-weight="500"><tspan x="0" y="15">Our hotel is an image of quality and </tspan><tspan x="0" y="36">profesionalism combined with hard </tspan><tspan x="0" y="57">work and precision. You can expect </tspan><tspan x="0" y="78">only the best services from our staff.</tspan></text>
    <g id="_001-facebook" data-name="001-facebook" transform="translate(139 5032)">
      <circle id="Ellipse_15" data-name="Ellipse 15" cx="17.5" cy="17.5" r="17.5" transform="translate(0 0)" fill="#3b5998"/>
      <path id="Path_16" data-name="Path 16" d="M47.87,33.107H44.761V44.494H40.052V33.107h-2.24v-4h2.24v-2.59c0-1.852.88-4.752,4.751-4.752l3.488.015v3.885H45.761a.959.959,0,0,0-1,1.091v2.355h3.52Z" transform="translate(-25.993 -14.916)" fill="#fff"/>
    </g>
    <g id="_002-twitter" data-name="002-twitter" transform="translate(184.4 5032)">
      <circle id="Ellipse_16" data-name="Ellipse 16" cx="17.5" cy="17.5" r="17.5" transform="translate(0.001 0)" fill="#55acee"/>
      <g id="Group_39" data-name="Group 39" transform="translate(7.857 10.637)">
        <path id="Path_17" data-name="Path 17" d="M45.444,35.985a8.326,8.326,0,0,1-2.4.656,4.185,4.185,0,0,0,1.835-2.308,8.354,8.354,0,0,1-2.65,1.012,4.177,4.177,0,0,0-7.112,3.807,11.847,11.847,0,0,1-8.6-4.361,4.178,4.178,0,0,0,1.291,5.572,4.144,4.144,0,0,1-1.89-.523c0,.018,0,.035,0,.053a4.176,4.176,0,0,0,3.348,4.092,4.19,4.19,0,0,1-1.885.072,4.178,4.178,0,0,0,3.9,2.9A8.425,8.425,0,0,1,25.1,48.684a11.868,11.868,0,0,0,18.271-10c0-.181,0-.361-.012-.54a8.463,8.463,0,0,0,2.083-2.16Z" transform="translate(-25.103 -34.028)" fill="#f1f2f2"/>
      </g>
    </g>
    <g id="_004-google-plus" data-name="004-google-plus" transform="translate(230 5032.001)">
      <g id="Group_40" data-name="Group 40" transform="translate(0 -0.001)">
        <circle id="XMLID_30_" cx="17.5" cy="17.5" r="17.5" transform="translate(0 0)" fill="#dc4e41"/>
      </g>
      <g id="Group_42" data-name="Group 42" transform="translate(5.77 10.841)">
        <path id="Path_21" data-name="Path 21" d="M19.521,42.882A7.422,7.422,0,0,0,24.528,49.9a7.325,7.325,0,0,0,8.006-2.134,8.4,8.4,0,0,0,1.5-5.939c-2.369-.021-4.737-.014-7.1-.011,0,.844,0,1.684,0,2.528,1.418.039,2.837.021,4.255.05a4.1,4.1,0,0,1-2.411,2.812,4.691,4.691,0,1,1-3.159-8.825,5.216,5.216,0,0,1,4.39.858c.659-.617,1.277-1.277,1.883-1.943a7.466,7.466,0,0,0-12.375,5.584Z" transform="translate(-19.517 -35.446)" fill="#dc4e41"/>
        <path id="Path_22" data-name="Path 22" d="M74.58,48.668c-.007.706-.014,1.415-.018,2.12-.709.007-1.415.011-2.12.014v2.113c.706,0,1.415.007,2.12.014.007.706.007,1.411.014,2.12.7,0,1.408,0,2.113,0,0-.709.007-1.415.014-2.124l2.12-.011V50.8c-.705,0-1.415-.007-2.12-.014,0-.706-.011-1.415-.014-2.12Z" transform="translate(-55.449 -44.422)" fill="#dc4e41"/>
        <g id="Group_41" data-name="Group 41">
          <path id="Path_23" data-name="Path 23" d="M19.521,42.882A7.465,7.465,0,0,1,31.9,37.3c-.606.667-1.224,1.326-1.883,1.943a5.216,5.216,0,0,0-4.39-.858,4.691,4.691,0,1,0,3.159,8.826A4.1,4.1,0,0,0,31.194,44.4c-1.418-.028-2.837-.011-4.255-.05,0-.844-.007-1.684,0-2.528,2.365,0,4.733-.011,7.1.011a8.392,8.392,0,0,1-1.5,5.939A7.325,7.325,0,0,1,24.528,49.9,7.422,7.422,0,0,1,19.521,42.882Z" transform="translate(-19.517 -35.445)" fill="#fff"/>
          <path id="Path_24" data-name="Path 24" d="M74.58,48.668H76.69c0,.706.011,1.415.014,2.12.705.007,1.415.011,2.12.014v2.113l-2.12.011c-.007.709-.011,1.415-.014,2.124-.705,0-1.411,0-2.113,0-.007-.709-.007-1.415-.014-2.12-.705-.007-1.415-.011-2.12-.014V50.8q1.059-.005,2.12-.014C74.566,50.083,74.573,49.374,74.58,48.668Z" transform="translate(-55.449 -44.422)" fill="#fff"/>
        </g>
      </g>
    </g>
  </g>
</svg>
